# xmcd
#
# Track frame offsets:
# 150
# 23146
# 41251
# 64307
# 87248
# 107859
# 126086
# 146309
# 169996
# 191264
# 211656
# 232994
# 258454
# 270611
# 282402
# 300962
#
# Disc length: 4321 seconds
#
#
# Revision: 0
# Processed by: cddbd v1.4PL0 Copyright (c) Steve Scherf et al.
# Submitted via: FreeRIP 2.00 
#
DISCID=d710df10
DTITLE=劉若英 - 夜市經選集
DYEAR=2002
DGENRE=R&B
TTITLE0=為愛痴狂
TTITLE1=人之初
TTITLE2=打了一把鑰匙給你
TTITLE3=冰點
TTITLE4=成全
TTITLE5=收穫
TTITLE6=我等你
TTITLE7=決定
TTITLE8=玫瑰天空
TTITLE9=花季未了
TTITLE10=很愛很愛你
TTITLE11=後來
TTITLE12=透明
TTITLE13=昇哥的話
TTITLE14=對面男生的房間
TTITLE15=說話
EXTD=
EXTT0=
EXTT1=
EXTT2=
EXTT3=
EXTT4=
EXTT5=
EXTT6=
EXTT7=
EXTT8=
EXTT9=
EXTT10=
EXTT11=
EXTT12=
EXTT13=
EXTT14=
EXTT15=
PLAYORDER=
